#!OML:ASF F:\VICON\USERDATA\INSTALL\rory3\rory3.ASF
:FULLY-SPECIFIED
:DEGREES
2977
root -0.709742 14.2094 4.04763 -373.926 -43.3189 375.765
lowerback 18.2988 -1.28868 -10.328
upperback -1.02005 -4.10168 -0.802282
thorax -10.8057 -1.37715 6.07158
lowerneck -11.5842 -4.33402 -4.24438
upperneck 18.3046 -5.85559 3.04772
head 7.76954 -2.84026 1.10105
rclavicle 3.37934e-015 -4.77083e-015
rhumerus -24.5135 36.8499 -69.0116
rradius 113.143
rwrist -81.8722
rhand -5.61125 7.00233
rfingers 7.12502
rthumb 20.206 -21.9667
lclavicle 3.37934e-015 -4.77083e-015
lhumerus -22.2871 3.69366 70.2783
lradius 119.82
lwrist 74.0854
lhand 11.0505 26.0202
lfingers 7.12502
lthumb 36.122 52.3066
rfemur -33.9509 11.8191 11.8942
rtibia 73.8338
rfoot -30.8989 3.02323
rtoes -10.8093
lfemur -5.3518 -3.17924 -3.05252
ltibia 20.9902
lfoot -25.9591 17.5811
ltoes 40.0486
2978
root -0.702046 14.2051 4.05084 -373.568 -43.2415 375.375
lowerback 18.1932 -1.27338 -9.81436
upperback -0.906138 -3.97251 -1.01439
thorax -10.6843 -1.36565 5.50483
lowerneck -11.5596 -4.35121 -3.7517
upperneck 18.2077 -6.00751 3.22179
head 7.72844 -2.86331 1.06285
rclavicle 1.05853e-014 -1.35174e-014
rhumerus -26.1195 35.1684 -69.5884
rradius 113.928
rwrist -81.6499
rhand -5.4461 6.45372
rfingers 7.12502
rthumb 20.3647 -22.4985
lclavicle 1.05853e-014 -1.35174e-014
lhumerus -22.5682 3.54033 69.6877
lradius 120.606
lwrist 73.5963
lhand 12.0011 25.9324
lfingers 7.12502
lthumb 37.0217 51.9913
rfemur -34.0086 11.6766 12.1406
rtibia 73.7825
rfoot -30.82 2.89019
rtoes -10.4884
lfemur -5.79227 -2.57549 -2.68289
ltibia 21.4027
lfoot -25.6596 16.7494
ltoes 40.9523
2979
root -0.693129 14.2081 4.06046 -373.351 -43.1441 375.069
lowerback 18.4893 -1.63299 -9.83632
upperback -1.05624 -4.45538 -0.649504
thorax -10.9126 -1.55747 6.06706
lowerneck -11.3749 -3.8778 -4.42189
upperneck 18.3003 -5.23131 3.19552
head 7.71485 -2.54543 1.24886
rclavicle -1.63997e-015 3.49861e-014
rhumerus -27.0194 35.3668 -69.6195
rradius 114.507
rwrist -81.4659
rhand -5.6653 7.04257
rfingers 7.12502
rthumb 20.1541 -21.932
lclavicle -1.63997e-015 3.49861e-014
lhumerus -24.0225 4.71732 69.2651
lradius 121.402
lwrist 72.6148
lhand 11.6839 25.3288
lfingers 7.12502
lthumb 36.7217 51.4647
rfemur -33.9181 11.5634 12.2795
rtibia 73.7154
rfoot -30.9092 3.19744
rtoes -9.24306
lfemur -6.2957 -1.89469 -2.44283
ltibia 22.0944
lfoot -23.9384 17.7547
ltoes 38.4205
2980
root -0.682463 14.2069 4.06767 -373.2 -43.002 374.984
lowerback 18.5321 -1.57263 -9.69924
upperback -0.960381 -4.35708 -0.762926
thorax -10.8631 -1.52994 5.83852
lowerneck -11.5051 -3.94066 -3.98644
upperneck 18.1309 -5.35934 3.05766
head 7.67102 -2.58653 1.11747
rclavicle 1.46355e-013 -1.59028e-014
rhumerus -28.4435 33.7526 -69.9688
rradius 115.395
rwrist -81.266
rhand -5.93943 6.77516
rfingers 7.12502
rthumb 19.8906 -22.227
lclavicle 1.46355e-013 -1.59028e-014
lhumerus -24.2602 5.06492 68.683
lradius 122.286
lwrist 72.628
lhand 11.2313 25.74
lfingers 7.12502
lthumb 36.2933 51.9839
rfemur -33.9829 11.2586 12.2433
rtibia 73.6968
rfoot -30.8934 2.50177
rtoes -12.4156
lfemur -6.83962 -1.29308 -2.37694
ltibia 22.6863
lfoot -22.7002 18.1564
ltoes 36.4916
2981
root -0.671363 14.2087 4.0753 -373.108 -42.8028 375.006
lowerback 18.9977 -1.44909 -10.1077
upperback -1.19534 -4.33146 -0.54305
thorax -11.3591 -1.44234 6.34742
lowerneck -11.3916 -3.87736 -3.81468
upperneck 18.2442 -5.22579 2.60678
head 7.66589 -2.55489 0.95713
rclavicle -9.323e-014 -7.95139e-015
rhumerus -30.3105 32.6419 -70.0115
rradius 116.396
rwrist -80.708
rhand -5.98106 7.19585
rfingers 7.12502
rthumb 19.8506 -21.8104
lclavicle -9.323e-014 -7.95139e-015
lhumerus -25.2248 4.94217 68.7741
lradius 123.426
lwrist 70.7716
lhand 10.0062 25.0013
lfingers 7.12502
lthumb 35.1322 51.5263
rfemur -34.0974 11.0362 11.9859
rtibia 73.7402
rfoot -30.8625 3.97346
rtoes -7.60609
lfemur -7.24967 -1.00483 -2.43981
ltibia 22.989
lfoot -22.0227 18.3731
ltoes 35.1716
2982
root -0.658688 14.2083 4.08742 -372.85 -42.6764 374.747
lowerback 19.3655 -1.31278 -10.3113
upperback -1.35967 -4.21497 -0.227929
thorax -11.7429 -1.32801 6.81799
lowerneck -11.1984 -3.86398 -3.81161
upperneck 18.2017 -5.15998 2.33213
head 7.6078 -2.55103 0.877641
rclavicle 4.07509e-015 -6.36111e-015
rhumerus -31.9239 31.1697 -69.7557
rradius 117.277
rwrist -79.5297
rhand -5.2493 7.11611
rfingers 7.12502
rthumb 20.5539 -21.8158
lclavicle 4.07509e-015 -6.36111e-015
lhumerus -26.1428 4.85549 69.2085
lradius 124.536
lwrist 68.9551
lhand 9.23201 24.1074
lfingers 7.12502
lthumb 34.3976 50.802
rfemur -34.0974 10.7437 12.053
rtibia 73.6658
rfoot -30.9089 3.72667
rtoes -8.97114
lfemur -7.80394 -0.49385 -2.27589
ltibia 23.6558
lfoot -21.0631 18.3936
ltoes 34.0168
2983
root -0.643509 14.2075 4.10521 -372.806 -42.4832 374.728
lowerback 19.4788 -1.33076 -10.3866
upperback -1.36088 -4.2604 -0.147519
thorax -11.7896 -1.33725 6.97142
lowerneck -11.339 -3.78583 -3.76228
upperneck 18.3359 -5.0304 2.18184
head 7.66751 -2.49834 0.830134
rclavicle -1.41485e-013 1.98785e-014
rhumerus -33.2571 29.8096 -69.7402
rradius 118.16
rwrist -78.6432
rhand -4.72952 7.07128
rfingers 7.12502
rthumb 21.0533 -21.8059
lclavicle -1.41485e-013 1.98785e-014
lhumerus -26.9583 5.2972 69.0918
lradius 125.657
lwrist 67.8798
lhand 8.99278 23.602
lfingers 7.12502
lthumb 34.1704 50.3478
rfemur -34.0301 10.381 11.8874
rtibia 73.6318
rfoot -31.0353 3.54171
rtoes -10.0999
lfemur -8.22245 0.117597 -2.28694
ltibia 24.1163
lfoot -20.1206 18.3044
ltoes 33.509
